<svg width="537" height="408" xmlns="http://www.w3.org/2000/svg" xmlns:xlink="http://www.w3.org/1999/xlink"><defs><filter x="-11%" y="-22%" width="122%" height="144%" filterUnits="objectBoundingBox" id="a"><feOffset dy="5" in="SourceAlpha" result="shadowOffsetOuter1"/><feGaussianBlur stdDeviation="9.5" in="shadowOffsetOuter1" result="shadowBlurOuter1"/><feColorMatrix values="0 0 0 0 0 0 0 0 0 0 0 0 0 0 0 0 0 0 0.0953343531 0" in="shadowBlurOuter1" result="shadowMatrixOuter1"/><feMerge><feMergeNode in="shadowMatrixOuter1"/><feMergeNode in="SourceGraphic"/></feMerge></filter><filter x="-16.3%" y="-31%" width="132.7%" height="161.2%" filterUnits="objectBoundingBox" id="b"><feOffset dy="12" in="SourceAlpha" result="shadowOffsetOuter1"/><feGaussianBlur stdDeviation="9.5" in="shadowOffsetOuter1" result="shadowBlurOuter1"/><feColorMatrix values="0 0 0 0 0 0 0 0 0 0 0 0 0 0 0 0 0 0 0.0673623252 0" in="shadowBlurOuter1" result="shadowMatrixOuter1"/><feMerge><feMergeNode in="shadowMatrixOuter1"/><feMergeNode in="SourceGraphic"/></feMerge></filter><rect id="d" width="419" height="224" rx="5"/><filter x="-3.3%" y="-6.7%" width="106.7%" height="112.5%" filterUnits="objectBoundingBox" id="c"><feOffset dy="-1" in="SourceAlpha" result="shadowOffsetOuter1"/><feGaussianBlur stdDeviation="4.5" in="shadowOffsetOuter1" result="shadowBlurOuter1"/><feColorMatrix values="0 0 0 0 0 0 0 0 0 0 0 0 0 0 0 0 0 0 0.0790264423 0" in="shadowBlurOuter1"/></filter></defs><g fill="none" fill-rule="evenodd"><g filter="url(#a)" transform="translate(99 14)"><rect fill="#FFF" width="419" height="209" rx="5"/><text font-family="InterUI-Medium, Inter UI" font-size="14" font-weight="400" fill="#919191" transform="translate(22 15)"><tspan x="0" y="13.7">Conversion Rate</tspan></text><text font-family="InterUI-Regular, Inter UI" font-size="20" fill="#000" transform="translate(22 15)"><tspan x="1" y="38.4">30.54%</tspan></text><path d="M25 181.5h364M25 147.5h364M25 113.5h364M25 79.5h364" stroke="#EEE" opacity=".5" stroke-linecap="square"/><g transform="translate(26 88)" fill="#7F86FF"><rect y="46" width="8" height="38" rx="3"/><rect x="16" y="43" width="8" height="41" rx="3"/><rect x="32" y="43" width="8" height="41" rx="3"/><rect x="48" y="36" width="8" height="48" rx="3"/><rect x="64" y="36" width="8" height="48" rx="3"/><rect x="80" y="18" width="8" height="66" rx="3"/><rect x="96" y="26" width="8" height="58" rx="3"/><rect x="112" y="15" width="8" height="69" rx="3"/><rect x="128" y="31" width="8" height="53" rx="3"/><rect x="144" y="21" width="8" height="63" rx="3"/><rect x="160" y="26" width="8" height="58" rx="3"/><rect x="176" y="26" width="8" height="58" rx="3"/><rect x="320" y="15" width="8" height="69" rx="3"/><rect x="336" y="31" width="8" height="53" rx="3"/><rect x="352" y="21" width="8" height="63" rx="3"/><rect x="192" width="8" height="84" rx="3"/><rect x="208" y="21" width="8" height="63" rx="3"/><rect x="224" y="33" width="8" height="51" rx="3"/><rect x="240" y="31" width="8" height="53" rx="3"/><rect x="256" y="21" width="8" height="63" rx="3"/><rect x="272" y="19" width="8" height="65" rx="3"/><rect x="288" y="33" width="8" height="51" rx="3"/><rect x="304" y="40" width="8" height="44" rx="3"/></g><path d="M12.5 82h-.7l-.6-.5-.5-.8-.2-1.4c0-1 .2-1.8.6-2.4.4-.5.9-.8 1.5-.8.5 0 1 .1 1.3.4.3.3.5.7.5 1.1h-.7c0-.2-.1-.5-.3-.6a1 1 0 0 0-.8-.3c-.4 0-.8.2-1 .6a3 3 0 0 0-.4 1.7 1.7 1.7 0 0 1 2.4-.6c.3.2.5.4.6.7.2.3.3.6.3 1s0 .7-.3 1a1.8 1.8 0 0 1-1.7 1zm0-.5l.7-.2.4-.5c.2-.2.2-.4.2-.7 0-.2 0-.4-.2-.6 0-.2-.2-.4-.4-.5l-.6-.2c-.3 0-.5 0-.7.2a1.4 1.4 0 0 0-.6 1.1l.1.7.5.5.6.2zm5 .6c-.6 0-1.1-.3-1.5-.8a4 4 0 0 1-.5-2.2c0-1 .2-1.7.5-2.2.4-.5.9-.8 1.5-.8s1.1.3 1.5.8c.3.5.5 1.2.5 2.2a4 4 0 0 1-.5 2.2c-.4.5-.9.8-1.5.8zm0-.6c.4 0 .8-.2 1-.7.2-.4.3-1 .3-1.7 0-.8 0-1.3-.3-1.8-.3-.4-.6-.6-1-.6s-.7.2-1 .6c-.2.5-.3 1-.3 1.8 0 .7 0 1.3.3 1.7.2.5.6.7 1 .7zm-7.2 33.3v-.6l2.6-4h.8v4h.8v.6h-.8v1.2h-.6v-1.2h-2.8zm2.8-.6V111l-2 3h2zm4.4 1.9c-.6 0-1.1-.3-1.5-.8a4 4 0 0 1-.5-2.2c0-1 .2-1.7.5-2.2.4-.5.9-.8 1.5-.8s1.1.3 1.5.8c.3.5.5 1.2.5 2.2a4 4 0 0 1-.5 2.2c-.4.5-.9.8-1.5.8zm0-.6c.4 0 .8-.2 1-.7.2-.4.3-1 .3-1.7 0-.8 0-1.3-.3-1.8-.3-.4-.6-.6-1-.6s-.7.2-1 .6c-.2.5-.3 1-.3 1.8 0 .7 0 1.3.3 1.7.2.5.6.7 1 .7zM10.8 150v-.5l1.9-2.1a12.9 12.9 0 0 0 .9-1.2v-.5a1 1 0 0 0-.2-.7c-.3-.2-.5-.3-.8-.3a1 1 0 0 0-.8.3 1 1 0 0 0-.3.8h-.7c0-.3 0-.6.2-.9l.7-.6a2 2 0 0 1 .9-.2c.3 0 .6 0 .9.2l.6.6c.2.2.2.5.2.8v.6l-.5.7-.8 1-1.3 1.3h2.7v.7h-3.6zm6.7 0c-.6 0-1.1-.2-1.5-.7a4 4 0 0 1-.5-2.2c0-1 .2-1.7.5-2.2.4-.5.9-.8 1.5-.8s1.1.3 1.5.8c.3.5.5 1.2.5 2.2a4 4 0 0 1-.5 2.2c-.4.5-.9.8-1.5.8zm0-.5c.4 0 .8-.2 1-.7.2-.4.3-1 .3-1.7 0-.8 0-1.3-.3-1.8-.3-.4-.6-.6-1-.6s-.7.2-1 .6c-.2.5-.3 1-.3 1.8 0 .7 0 1.3.3 1.7.2.5.6.7 1 .7zm0 34.6c-.6 0-1.1-.3-1.5-.8a4 4 0 0 1-.5-2.2c0-1 .2-1.7.5-2.2.4-.5.9-.8 1.5-.8s1.1.3 1.5.8c.3.5.5 1.2.5 2.2a4 4 0 0 1-.5 2.2c-.4.5-.9.8-1.5.8zm0-.6c.4 0 .8-.2 1-.7.2-.4.3-1 .3-1.7 0-.8 0-1.3-.3-1.8-.3-.4-.6-.6-1-.6s-.7.2-1 .6c-.2.5-.3 1-.3 1.8 0 .7 0 1.3.3 1.7.2.5.6.7 1 .7z" fill="#CFCFCF" fill-rule="nonzero"/></g><g filter="url(#b)" transform="translate(19 153)"><use fill="#000" filter="url(#c)" xlink:href="#d"/><use fill="#FFF" xlink:href="#d"/><text font-family="InterUI-Medium, Inter UI" font-size="14" font-weight="400" fill="#919191" transform="translate(291 13)"><tspan x="16" y="13.7">Unique Visitors</tspan></text><text font-family="InterUI-Regular, Inter UI" font-size="20" fill="#000" transform="translate(291 13)"><tspan x="81.1" y="38.4">298</tspan></text><text font-family="InterUI-Medium, Inter UI" font-size="14" font-weight="400" fill="#919191" transform="translate(13 13)"><tspan x="0" y="13.7">Page Views</tspan></text><text font-family="InterUI-Regular, Inter UI" font-size="20" fill="#000" transform="translate(13 13)"><tspan x="1" y="38.4">419</tspan></text><path d="M32 195.5h364M32 143.5h364M32 91.5h364" stroke="#EEE" opacity=".5" stroke-linecap="square"/><path stroke="#00E7BC" stroke-width="2" d="M31 190l15.6-31.4 15.6-24L77.8 182l15.6-28.5 15.6-18.8 15.7 14.7 15.6 11 15.6-15.4 15.6-6.8 15.6 6.8 15.6 20.4 15.6-35.3 15.6 46.8 15.6-8.4 15.6 3.1 15.6-47.5 15.6 16.7 15.7 3 15.6-3 15.6 5.4h15.6L374.4 94l15.6-8"/><path stroke="#7F86FF" stroke-width="2" d="M31 190l15.6-29.7 15.6-23.8 15.6 45.3 15.6-28.5 15.6-16.8 15.7 31.8 15.6-8 15.6 8 15.6-15L187 157l15.6 14.5 15.6-3.2 15.6 8.4 15.6-8.4 15.6 13.5 15.6-10.3 15.6-18.2L312 157l15.6-7.8 15.6 11 15.6-6.9 15.6-16.8L390 91"/><path d="M8.3 92.8v-.6l2.6-4h.8v4h.8v.6h-.8V94h-.6v-1.2H8.3zm2.8-.6V89l-2 3h2zm4.4 1.9c-.6 0-1.1-.3-1.5-.8a4 4 0 0 1-.5-2.2c0-1 .2-1.7.5-2.2.4-.5.9-.8 1.5-.8s1.1.3 1.5.8c.3.5.5 1.2.5 2.2a4 4 0 0 1-.5 2.2c-.4.5-.9.8-1.5.8zm0-.6c.4 0 .8-.2 1-.7.2-.4.3-1 .3-1.7 0-.8 0-1.3-.3-1.8-.3-.4-.6-.6-1-.6s-.7.2-1 .6c-.2.5-.3 1-.3 1.8 0 .7 0 1.3.3 1.7.2.5.6.7 1 .7zm5 .6c-.6 0-1.1-.3-1.5-.8a4 4 0 0 1-.5-2.2c0-1 .2-1.7.5-2.2.4-.5.9-.8 1.5-.8s1.1.3 1.5.8c.3.5.5 1.2.5 2.2a4 4 0 0 1-.5 2.2c-.4.5-.9.8-1.5.8zm0-.6c.4 0 .8-.2 1-.7.2-.4.3-1 .3-1.7 0-.8 0-1.3-.3-1.8-.3-.4-.6-.6-1-.6s-.7.2-1 .6c-.2.5-.3 1-.3 1.8 0 .7 0 1.3.3 1.7.2.5.6.7 1 .7zM8.8 146v-.5l1.9-2.1a12.9 12.9 0 0 0 .9-1.2v-.5a1 1 0 0 0-.2-.7c-.3-.2-.5-.3-.8-.3a1 1 0 0 0-.8.3 1 1 0 0 0-.3.8h-.7c0-.3 0-.6.2-.9l.7-.6a2 2 0 0 1 .9-.2c.3 0 .6 0 .9.2l.6.6c.2.2.2.5.2.8v.6l-.5.7-.8 1-1.3 1.3h2.7v.7H8.8zm6.7 0c-.6 0-1.1-.2-1.5-.7a4 4 0 0 1-.5-2.2c0-1 .2-1.7.5-2.2.4-.5.9-.8 1.5-.8s1.1.3 1.5.8c.3.5.5 1.2.5 2.2a4 4 0 0 1-.5 2.2c-.4.5-.9.8-1.5.8zm0-.5c.4 0 .8-.2 1-.7.2-.4.3-1 .3-1.7 0-.8 0-1.3-.3-1.8-.3-.4-.6-.6-1-.6s-.7.2-1 .6c-.2.5-.3 1-.3 1.8 0 .7 0 1.3.3 1.7.2.5.6.7 1 .7zm5 .6c-.6 0-1.1-.3-1.5-.8a4 4 0 0 1-.5-2.2c0-1 .2-1.7.5-2.2.4-.5.9-.8 1.5-.8s1.1.3 1.5.8c.3.5.5 1.2.5 2.2a4 4 0 0 1-.5 2.2c-.4.5-.9.8-1.5.8zm0-.6c.4 0 .8-.2 1-.7.2-.4.3-1 .3-1.7 0-.8 0-1.3-.3-1.8-.3-.4-.6-.6-1-.6s-.7.2-1 .6c-.2.5-.3 1-.3 1.8 0 .7 0 1.3.3 1.7.2.5.6.7 1 .7zm0 52.6c-.6 0-1.1-.3-1.5-.8a4 4 0 0 1-.5-2.2c0-1 .2-1.7.5-2.2.4-.5.9-.8 1.5-.8s1.1.3 1.5.8c.3.5.5 1.2.5 2.2a4 4 0 0 1-.5 2.2c-.4.5-.9.8-1.5.8zm0-.6c.4 0 .8-.2 1-.7.2-.4.3-1 .3-1.7 0-.8 0-1.3-.3-1.8-.3-.4-.6-.6-1-.6s-.7.2-1 .6c-.2.5-.3 1-.3 1.8 0 .7 0 1.3.3 1.7.2.5.6.7 1 .7z" fill="#CFCFCF" fill-rule="nonzero"/></g></g></svg>