<svg id="Layer_1" data-name="Layer 1" xmlns="http://www.w3.org/2000/svg" viewBox="0 0 64 64"><defs><style>.cls-3{fill:#4fbe9f}</style></defs><path d="M45.88 8a5.45 5.45 0 015.45 5.45v37.1A5.45 5.45 0 0145.88 56H18.12a5.45 5.45 0 01-5.45-5.45V19.89a2.45 2.45 0 01.72-1.74l9.43-9.43A2.45 2.45 0 0124.56 8z" fill="#ebeef2"/><path d="M22.82 8.72a2.36 2.36 0 01.72-.49v5.46a7.16 7.16 0 01-7.16 7.16h-3.71v-1a2.45 2.45 0 01.72-1.74z" fill="#dcdfe2"/><path class="cls-3" d="M12.9 18.87a2.36 2.36 0 01.49-.72l9.43-9.43a2.36 2.36 0 01.72-.49v5.19a5.45 5.45 0 01-5.45 5.45z"/><rect x="21.63" y="43.38" width="20.75" height="2.75" rx=".56" fill="#fff"/><rect class="cls-3" x="30.5" y="27.17" width="3" height="14.25" rx=".83"/><path class="cls-3" d="M35.67 33L32 29.29 28.33 33a.65.65 0 01-.93 0l-1.19-1.19a.65.65 0 010-.93l5.48-5.48a.44.44 0 01.62 0l5.48 5.48a.65.65 0 010 .93L36.6 33a.65.65 0 01-.93 0z"/></svg>