<svg id="Layer_1" data-name="Layer 1" xmlns="http://www.w3.org/2000/svg" viewBox="0 0 64 64"><defs><style>.cls-1{fill:#09816c}.cls-2{fill:#4fbe9f}</style></defs><path class="cls-1" d="M19 43.31v-1.55a3.46 3.46 0 00-1.73-3 3.45 3.45 0 00-3.46 0 3.46 3.46 0 00-1.73 3v1.55a3 3 0 001.52 2.63 3.9 3.9 0 003.88 0A3 3 0 0019 43.31z"/><path class="cls-1" d="M22.46 56H8.67a.67.67 0 01-.67-.67V53.5a7.56 7.56 0 017.57-7.56 7.56 7.56 0 017.57 7.56v1.83a.68.68 0 01-.68.67zM51.89 43.31v-1.55a3.46 3.46 0 00-1.73-3 3.45 3.45 0 00-3.46 0 3.46 3.46 0 00-1.73 3v1.55a3 3 0 001.52 2.63 3.9 3.9 0 003.88 0 3 3 0 001.52-2.63z"/><path class="cls-1" d="M55.33 56H41.54a.68.68 0 01-.68-.67V53.5a7.56 7.56 0 017.57-7.56A7.56 7.56 0 0156 53.5v1.83a.67.67 0 01-.67.67z"/><path class="cls-2" d="M38.15 33.44v-2.75a6.16 6.16 0 00-3.07-5.33 6.16 6.16 0 00-6.16 0 6.16 6.16 0 00-3.07 5.33v2.75a5.38 5.38 0 002.7 4.67 6.86 6.86 0 006.9 0 5.38 5.38 0 002.7-4.67z"/><path class="cls-2" d="M44.26 56H19.74a1.2 1.2 0 01-1.2-1.2v-3.24A13.46 13.46 0 0132 38.11a13.46 13.46 0 0113.46 13.45v3.24a1.2 1.2 0 01-1.2 1.2z"/></svg>