<svg id="Layer_1" data-name="Layer 1" xmlns="http://www.w3.org/2000/svg" viewBox="0 0 64 64"><defs><style>.cls-1{fill:#ebeef2}.cls-4{fill:#fff}</style></defs><path class="cls-1" d="M16.37 23h31.26A8.37 8.37 0 0156 31.41v21.75A2.88 2.88 0 0153.12 56H10.88A2.88 2.88 0 018 53.16V31.41A8.37 8.37 0 0116.37 23z"/><path d="M56 53.16V29.42A6.39 6.39 0 0049.61 23H32.24c-2.43 6.73-4.61 13.43-4.61 14.19v4.14a2.57 2.57 0 001.29 2.23l19.23 11.15a10 10 0 005 1.33A2.88 2.88 0 0056 53.16z" fill="#dcdfe2"/><path d="M56 29.86a9.74 9.74 0 00-4.87-8.44L33 11a2 2 0 00-2 0L12.87 21.42A9.74 9.74 0 008 29.86v.2a2.57 2.57 0 001.29 2.23L31 44.83a2 2 0 002 0l21.71-12.54A2.57 2.57 0 0056 30.06v-.14-.06z" fill="#4fbe9f"/><path class="cls-1" d="M36 21.86h3.11a.19.19 0 01.19.19v7.58h-3.5V22a.19.19 0 01.2-.14z"/><path class="cls-4" d="M31.78 19.22l-9.38 9.39a.3.3 0 00.22.52h18.76a.3.3 0 00.22-.52l-9.38-9.39a.31.31 0 00-.44 0z"/><path class="cls-4" d="M24.72 28.31h14.55v9.31H24.72z"/><path class="cls-1" d="M34.27 37.62h-4.54v-3.56A2.27 2.27 0 0132 31.79a2.27 2.27 0 012.27 2.27z"/></svg>