<svg id="Layer_1" data-name="Layer 1" xmlns="http://www.w3.org/2000/svg" viewBox="0 0 64 64"><defs><style>.cls-2{fill:#4fbe9f}</style></defs><path d="M32 42c13.25 0 24 3.38 24 7.55V33c0-4.17-10.75-7.55-24-7.55S8 28.85 8 33v16.5C8 45.35 18.75 42 32 42z" fill="#ebeef2"/><path class="cls-2" d="M42.35 54.5a1.54 1.54 0 001.83 1.5C51.26 54.71 56 52.29 56 49.52V33c0 2.84-5 5.31-12.36 6.6a1.55 1.55 0 00-1.29 1.52zM21.65 54.5V41.14a1.55 1.55 0 00-1.29-1.52C13 38.33 8 35.86 8 33v16.5c0 2.77 4.74 5.19 11.82 6.5a1.54 1.54 0 001.83-1.5zM40.21 22.88v-8a1.28 1.28 0 00-.65-1.11l-6.92-4a1.27 1.27 0 00-1.28 0l-6.92 4a1.28 1.28 0 00-.65 1.11v8a1.3 1.3 0 00.65 1.12l6.92 4a1.27 1.27 0 001.28 0l6.92-4a1.3 1.3 0 00.65-1.12z"/><path d="M39.56 13.78l-3.46-2-3.46-2a1.33 1.33 0 00-.64-.17v18.55a1.33 1.33 0 00.64-.17l3.46-2 3.46-2a1.3 1.3 0 00.65-1.12v-8a1.28 1.28 0 00-.65-1.09z" fill="#09816c"/><path class="cls-2" d="M32 18.89l8-4.64a1.25 1.25 0 00-.47-.47l-3.46-2-3.46-2a1.27 1.27 0 00-1.28 0l-3.46 2-3.46 2a1.25 1.25 0 00-.47.47z"/></svg>