<svg width="24" height="24" viewBox="0 0 24 24" fill="none" xmlns="http://www.w3.org/2000/svg"><path fill-rule="evenodd" clip-rule="evenodd" d="M15 12a2 2 0 0 0-2 2v4c0 1.1.9 2 2 2h4a2 2 0 0 0 2-2v-4a2 2 0 0 0-2-2h-.5c-.3 0-.5.2-.5.5V14a1 1 0 1 1-2 0v-1.5c0-.3-.2-.5-.5-.5H15Z" fill="#12131A"/><path fill-rule="evenodd" clip-rule="evenodd" d="M5 12a2 2 0 0 0-2 2v4c0 1.1.9 2 2 2h4a2 2 0 0 0 2-2v-4a2 2 0 0 0-2-2h-.5c-.3 0-.5.2-.5.5V14a1 1 0 1 1-2 0v-1.5c0-.3-.2-.5-.5-.5H5Z" fill="#12131A"/><path fill-rule="evenodd" clip-rule="evenodd" d="M10 2a2 2 0 0 0-2 2v4c0 1.1.9 2 2 2h4a2 2 0 0 0 2-2V4a2 2 0 0 0-2-2h-.5c-.3 0-.5.2-.5.5V4a1 1 0 1 1-2 0V2.5c0-.3-.2-.5-.5-.5H10Z" fill="#12131A"/></svg>