<svg width="24" height="24" viewBox="0 0 24 24" fill="none" xmlns="http://www.w3.org/2000/svg"><path d="M21 19.4c0 .9-.7 1.6-1.5 1.6s-1.5-.7-1.5-1.6c0-.8.7-1.8 1.2-2.3h.6c.5.5 1.2 1.5 1.2 2.3Z" fill="#12131A"/><path fill-rule="evenodd" clip-rule="evenodd" d="M10.6 6.4 7.9 9.1l-.8-.9a1.9 1.9 0 0 1 2.6-2.6l.9.8ZM12 5l2 2 5.7 5.7a1 1 0 0 1-.5 1.7l-2.9.5a1 1 0 0 0-.5.3l-5.2 5.2a2 2 0 0 1-2.8 0l-4.2-4.2a2 2 0 0 1 0-2.8l2.9-2.9-.9-.9a3.9 3.9 0 0 1 5.5-5.5l.9.9ZM6 15.9c-.3-.4 0-.9.4-.9H12c.4 0 .6.5.3.9l-2.8 2.7c-.2.2-.5.2-.7 0L6 16Z" fill="#12131A"/></svg>