<svg width="24" height="24" viewBox="0 0 24 24" fill="none" xmlns="http://www.w3.org/2000/svg"><path fill-rule="evenodd" clip-rule="evenodd" d="M19 4c.6 0 1 .4 1 1v3.2a3 3 0 0 1-2.6 3l-4.5.6a1 1 0 0 0-.9 1V14a1 1 0 1 1-2 0v-1.2a3 3 0 0 1 2.6-3l4.5-.6c.5 0 .9-.5.9-1V5c0-.6.4-1 1-1Z" fill="#12131A"/><path fill-rule="evenodd" clip-rule="evenodd" d="M11 13a2 2 0 0 0-2 2v5a2 2 0 1 0 4 0v-5a2 2 0 0 0-2-2Z" fill="#12131A"/><path d="M4 4c0-1.1.9-2 2-2h8a2 2 0 0 1 2 2v2a2 2 0 0 1-2 2H6a2 2 0 0 1-2-2V4Z" fill="#12131A"/></svg>