<svg width="24" height="24" viewBox="0 0 24 24" fill="none" xmlns="http://www.w3.org/2000/svg"><path d="M7 20c0-.6.4-1 1-1h8a1 1 0 1 1 0 2H8a1 1 0 0 1-1-1Z" fill="#12131A"/><path fill-rule="evenodd" clip-rule="evenodd" d="M7.8 17c-1.7 0-2.5 0-3.2-.3a3 3 0 0 1-1.3-1.3c-.3-.7-.3-1.5-.3-3.2V7.8c0-1.7 0-2.5.3-3.2.3-.5.8-1 1.3-1.3C5.3 3 6.1 3 7.8 3h8.4c1.7 0 2.5 0 3.2.3.5.3 1 .8 1.3 1.3.3.7.3 1.5.3 3.2v4.4c0 1.7 0 2.5-.3 3.2a3 3 0 0 1-1.3 1.3c-.7.3-1.5.3-3.2.3H7.8ZM6 7c0-.6.4-1 1-1h7a1 1 0 1 1 0 2H7a1 1 0 0 1-1-1Zm1 3a1 1 0 1 0 0 2h2a1 1 0 1 0 0-2H7Z" fill="#12131A"/></svg>