<svg width="24" height="24" viewBox="0 0 24 24" fill="none" xmlns="http://www.w3.org/2000/svg"><path fill-rule="evenodd" clip-rule="evenodd" d="M4 6.8c0-1.7 0-2.5.3-3.2.3-.5.8-1 1.3-1.3C6.3 2 7.1 2 8.8 2h3.9l.3.3v.5c0 2 0 3 .4 3.9a4 4 0 0 0 2 2c.7.3 1.7.3 3.8.3h.5l.3.3v7.9c0 1.7 0 2.5-.3 3.2a3 3 0 0 1-1.3 1.3c-.7.3-1.5.3-3.2.3H8.8c-1.7 0-2.5 0-3.2-.3a3 3 0 0 1-1.3-1.3c-.3-.7-.3-1.5-.3-3.2V6.8Zm8.5 3.5a.5.5 0 0 0-1 0l-.8 2-.4.2-1.8.2c-.5 0-.7.5-.3.8L9.6 15c.1.1.2.3.1.5l-.5 2c0 .4.4.8.8.5l1.7-1h.6l1.7 1c.4.3.9 0 .8-.5l-.5-2 .1-.5 1.4-1.4c.4-.3.2-.8-.3-.8l-1.8-.2a.5.5 0 0 1-.4-.3l-.8-1.9Z" fill="#12131A"/><path d="M15 2.7c0-.4.3-.7.7-.7.2 0 .4 0 .5.2l3.6 3.6.2.5c0 .4-.3.7-.7.7H17a2 2 0 0 1-2-2V2.7Z" fill="#12131A"/></svg>