<svg width="24" height="24" viewBox="0 0 24 24" fill="none" xmlns="http://www.w3.org/2000/svg"><path fill-rule="evenodd" clip-rule="evenodd" d="M4.3 3.6C4 4.3 4 5.1 4 6.8v10.4c0 1.7 0 2.5.3 3.2.3.5.8 1 1.3 1.3.7.3 1.5.3 3.2.3h6.4c1.7 0 2.5 0 3.2-.3a3 3 0 0 0 1.3-1.3c.3-.7.3-1.5.3-3.2V9.3l-.3-.2-.5-.1H17a4 4 0 0 1-4-4V2.3l-.3-.2-.5-.1H8.8c-1.7 0-2.5 0-3.2.3a3 3 0 0 0-1.3 1.3ZM8 13c0-.6.4-1 1-1h6a1 1 0 1 1 0 2H9a1 1 0 0 1-1-1Zm1 3a1 1 0 1 0 0 2h3a1 1 0 1 0 0-2H9Z" fill="#12131A"/><path d="M15 2.7a.7.7 0 0 1 1.2-.5l3.6 3.6a.7.7 0 0 1-.5 1.2H17a2 2 0 0 1-2-2V2.7Z" fill="#12131A"/></svg>