<svg width="24" height="24" viewBox="0 0 24 24" fill="none" xmlns="http://www.w3.org/2000/svg"><path d="M18.5 15.3c.2-.4.8-.4 1 0l.8 2 .4.2 1.8.2c.5 0 .7.5.3.8L21.4 20c-.1.1-.2.3-.1.5l.5 2c0 .4-.4.8-.8.5l-1.7-1a.5.5 0 0 0-.6 0l-1.7 1a.5.5 0 0 1-.8-.5l.5-2-.1-.5-1.4-1.4a.5.5 0 0 1 .3-.8l1.8-.2c.2 0 .4-.1.4-.3l.8-1.9Z" fill="#12131A"/><path fill-rule="evenodd" clip-rule="evenodd" d="M3.4 5.2C3 6 3 7.2 3 9.4v5.2c0 .2.2.3.4.2l2-1.2 1-.5h1c.4 0 .8.2 1.1.3h.1l.6.3.6.3h.2l.6-.4 2.5-1.8c.5-.3.8-.6 1.3-.7h1.2c.4 0 .8.3 1.2.6h.1l1.8 1.2.3.1h1.7l.2-.3.1-.5V9.4c0-2.2 0-3.4-.4-4.2a4 4 0 0 0-1.8-1.8c-.8-.4-2-.4-4.2-.4H9.4C7.2 3 6 3 5.2 3.4a4 4 0 0 0-1.8 1.8ZM9 11a2 2 0 1 0 0-4 2 2 0 0 0 0 4Z" fill="#12131A"/><path d="M15.8 13.4c.2.1.2.4 0 .5A6 6 0 0 0 13 19v1.7l-.3.2-.5.1H9.4c-2.2 0-3.4 0-4.2-.4a4 4 0 0 1-1.8-1.8 3.3 3.3 0 0 1-.3-1.2l.1-.3.3-.2 2.9-1.8.6-.3h.2l.6.3.5.2c.4.3.8.4 1.2.5l1-.1c.5-.1.8-.4 1.2-.6l2.5-1.9.7-.4h.2l.7.4Z" fill="#12131A"/></svg>