<svg width="24" height="24" viewBox="0 0 24 24" fill="none" xmlns="http://www.w3.org/2000/svg"><path fill-rule="evenodd" clip-rule="evenodd" d="M8.2 9h9l1.2.3c.5.3 1 .8 1.3 1.3l.3 1.2v7.4l-.3 1.2a3 3 0 0 1-1.3 1.3 3 3 0 0 1-1.2.3H6.8a3 3 0 0 1-1.2-.3 3 3 0 0 1-1.3-1.3 3 3 0 0 1-.3-1.2v-7.4l.3-1.2c.3-.5.8-1 1.3-1.3A3 3 0 0 1 6.8 9h1.4Zm3.8 6a1 1 0 0 0-1 1v1a1 1 0 1 0 2 0v-1c0-.6-.4-1-1-1Z" fill="#12131A"/><path fill-rule="evenodd" clip-rule="evenodd" d="M8 6a4 4 0 1 1 8 0v3h-2V6a2 2 0 1 0-4 0v3H8V6Z" fill="#12131A"/></svg>