<svg width="24" height="24" viewBox="0 0 24 24" fill="none" xmlns="http://www.w3.org/2000/svg"><path fill-rule="evenodd" clip-rule="evenodd" d="M2.3 5.6C2 6.3 2 7.1 2 8.8v6.4c0 1.7 0 2.5.3 3.2.3.5.8 1 1.3 1.3.7.3 1.5.3 3.2.3h10.4c1.7 0 2.5 0 3.2-.3a3 3 0 0 0 1.3-1.3c.3-.7.3-1.5.3-3.2V8.8c0-1.7 0-2.5-.3-3.2a3 3 0 0 0-1.3-1.3c-.7-.3-1.5-.3-3.2-.3H6.8c-1.7 0-2.5 0-3.2.3a3 3 0 0 0-1.3 1.3Zm5.3 2.6a1 1 0 0 0-1.2 1.6l3.9 2.7a3 3 0 0 0 3.4 0l3.9-2.7a1 1 0 0 0-1.2-1.6l-3.8 2.6a1 1 0 0 1-1.2 0L7.6 8.2Z" fill="#12131A"/></svg>